<?xml version="1.0" encoding="UTF-8"?>
<svg version="1.1" viewBox="0 0 2048 1327" width="1280" height="1280" xmlns="http://www.w3.org/2000/svg">
<path transform="translate(0)" d="m0 0h2048v1327h-2048z" fill="#FCFCFC"/>
<path transform="translate(1396,631)" d="m0 0 101 1 36 1 46 4 56 7 74 12 40 9 17 3 3 7 9 31 14 40 10 30v2l-14-3-25-8-37-11-42-11-32-7-25-6-38-7-79-13-50-6-28-2-58-3-36-2h-69l-80 4-46 3-31 4-94 17-46 10-44 11-11 3v2l-9 2-1 1 30-5 29-6 35-5 41-4 45-3 46-2h59l48 2 62 4 49 5 33 5 33 6 47 8 40 8 44 10 54 13 35 10 60 18 13 4-3 2 19 5 3-1 24 10 34 12 17 7 5 6 10 21 5 8 9 22 12 26 5 12 8 16 17 36 6 9 3 6v2l-5 3-7-2-7-6-17-9-16-10-13-8-17-9-22-12-18-11-27-12-14-6-16-8-6-2 2-1v-3l-6-1-29-12-7-4-14-6-24-10-8-4-11-4-23-8-60-20-2-2 7 1 22 6h2l-30-10-37-10-32-10-30-7-11-4-39-9-51-11-18-4-52-7-55-7-40-3-38-2h-50l-49 3-51 5-48 6-39 6-30 7-43 11-57 18-17 6-39 16-36 16-9 5-4-1-7 1-5 3-6 3-2-1 14-9 5-4 14-8 23-15 18-11 28-17 25-14 26-14 37-19 28-13 41-18 46-19 25-9 26-9 22-8 22-7 30-8 21-6 47-11 36-8 32-6 45-7 54-7 21-2 38-2z" fill="#020103"/>
<path transform="translate(1396,631)" d="m0 0 101 1 36 1 46 4 56 7 74 12 40 9 17 3 3 7 9 31 14 40 10 30v2l-14-3-25-8-37-11-42-11-32-7-25-6-38-7-79-13-50-6-28-2-58-3-36-2h-69l-80 4-46 3-31 4-94 17-46 10-44 11-11 3v2l-9 2-1 1h8v1l-28 6-30 8-41 13-15 5-2-1 10-7 17-6 8-3 27-9 24-7 19-4 7-2-3-1-21 5-2-1 9-4 6-2v-2h2l1-3h3l2-3-9 3-28 11-4 2-1 2-16 6-12 5-3-1 6-3-10 3-21 10h-5l4-3 23-11 41-18 33-14 28-11 24-9 21-7 22-8 22-7 30-8 21-6 47-11 36-8 32-6 45-7 54-7 21-2 38-2z" fill="#2B2F47"/>
<path transform="translate(869,268)" d="m0 0h17l22 1 20 3 12 4 10 6 8 8 7 12 6 20 1 6v13l-6 16-7 14-5 6-14 9-1 2 6 2 10 6 8 7 12 16 3 7 1 5v30l-4 12-7 11-15 15-10 7-16 5-12 2-31 1h-67l-1-78v-62l1-105z" fill="#030204"/>
<path transform="translate(1502,343)" d="m0 0 17 1 13 3 10 6 8 6h3l4-10 8-3 6-1h16l1 2 1 57v93l-1 19-3 14-9 21-7 10-9 9-11 7-13 4-15 2h-31l-18-4-11-4-11-8-10-10-9-14-1-3v-18l6-3 14-2h8l4 2 4 18 7 8 16 8 12 2 15-1 13-4 9-5 4-2 2-4 6-9 3-8 1-7 1-27 1-4-7 4-12 9-12 6-15 3h-15l-10-2-17-7-12-7-10-9-7-9-7-14-3-12-1-9v-29l3-14 8-16 10-13 10-9 11-7 13-4 5-1z" fill="#030204"/>
<path transform="translate(540,262)" d="m0 0h26l-3 1v115l1 78v53l-3 4-6 1h-9l-9-1-2-1-3-16-11 7-14 9-12 4-6 1h-22l-15-4-12-5-10-7-7-6-10-13-8-16-4-16v-38l3-14 7-16 7-11 13-13 13-9 13-5 14-2h18l14 3 14 7 9 7 4 4 1-95 1-4z" fill="#2C3048"/>
<path transform="translate(1351,262)" d="m0 0h32v202l-1 49h-30l-2-18-9 7-18 12-16 4h-15l-15-3-16-7-11-7-11-11-9-14-5-12-3-17-1-13v-14l2-15 4-13 10-19 11-12 8-7 14-8 12-3 10-1h19l16 3 9 5 12 11 2 1z" fill="#030204"/>
<path transform="translate(228,269)" d="m0 0h132l13 1v30l-72 1h-43l1 73h39l65-1 1 31-40 1-66 1 1 77h112l1 1 1 29-1 1h-148l-1-244z" fill="#2B2F47"/>
<path transform="translate(1690,342)" d="m0 0h32l19 4 16 8 10 9 9 14 6 15 4 18 1 9v18l-1 1h-126l2 15 5 13 12 13 16 8 5 1h19l12-3 10-6 7-7 13-17 5 1 17 9 1 3-8 18-7 10-9 8-15 8-16 5-16 2-15-1-16-4-21-9-10-9-10-12-9-13-4-11-1-8v-41l3-16 8-15 11-14 10-10 10-7 11-5z" fill="#030204"/>
<path transform="translate(620,346)" d="m0 0h23l6 2v101l3 16 6 12 8 7 7 3 5 1h14l12-3 9-5 5-6 6-10 1-11 1-32v-74l1-1h33l1 2-2 166-29-1-3-3-2-8-8 4-10 6-12 5-10 2h-13l-15-3-12-5-11-8-8-9-6-12-3-13-1-8-1-24v-35l1-55z" fill="#2B2F47"/>
<path transform="translate(479,371)" d="m0 0h14l11 4 10 7 9 9 5 10 2 10v41l-3 10-4 6-12 12-12 6-12 2h-12l-10-2-7-4-8-7-7-10-5-10-3-11v-28l3-12 5-12 6-8 8-6 11-5z" fill="#FDFDFD"/>
<path transform="translate(1298,371)" d="m0 0h15l10 3 10 7 7 7 8 16 3 11 1 8v15l-2 10-6 15-6 10-9 8-11 5-9 2h-13l-13-4-8-4-7-7-8-14-5-16-1-7v-12l3-16 5-12 9-13 10-6 12-5z" fill="#FDFDFD"/>
<path transform="translate(1499,372)" d="m0 0h20l11 4 11 8 7 8 6 12 1 5 1 14v14l-2 12-7 11-11 9-11 5-15 3-14-2-15-5-8-6-6-10-3-8-2-20 1-17 3-12 7-12 9-7 8-4z" fill="#FDFDFD"/>
<path transform="translate(1093,343)" d="m0 0h16l2 1 1 4v30l-2 2-34 3-5 2-12 14-4 8-1 32v76h-34l-1-7v-160l2-2 6-1h21l4 2 1 3 1 16 6-3 12-13 9-5z" fill="#030204"/>
<path transform="translate(869,403)" d="m0 0h39l10 1 16 12 6 9 3 10 1 7v9l-3 11-6 7-15 10-6 3-4 1h-58v-79z" fill="#FDFDFD"/>
<path transform="translate(1145,346)" d="m0 0h35l-1 168-1 1h-32l-1-29z" fill="#030204"/>
<path transform="translate(854,297)" d="m0 0h35l17 2 12 5 7 5 7 10 4 9 1 4v8l-5 14-7 9-9 7-7 3-11 1h-45l-1-4 1-72z" fill="#FDFDFD"/>
<path transform="translate(1699,370)" d="m0 0h17l10 3 10 6 8 8 6 12 3 14-1 1h-92l2-12 5-12 7-8 8-6 8-4z" fill="#FDFDFD"/>
<path transform="translate(1160,258)" d="m0 0 10 1 8 5 8 9 2 5v10l-5 10-8 7-10 3-10-1-10-6-4-6-1-3v-14l3-8 5-6z" fill="#040305"/>
<path transform="translate(682,845)" d="m0 0 3 1-5 4-1 2-9 5-7 5h8l3 3-20 9-7 4-4-1-7 1-5 3-6 3-2-1 14-9 5-4 14-8 23-15z" fill="#2B2F47"/>
<path transform="translate(1351,262)" d="m0 0h32v202h-1l-1-198-15 1h-14z" fill="#2C3048"/>
<path transform="translate(1742,347)" d="m0 0 6 2 10 6 9 8 9 14 4 9v10l-2-1-3-10-10-16-5-5v-2h-2l-5-5-11-7-2-2z" fill="#2A2D44"/>
<path transform="translate(817,467)" d="m0 0h1l1 42h10l2 1 20 1v1l33 1v1h-67z" fill="#25283D"/>
<path transform="translate(1517,856)" d="m0 0 7 1 22 6 12 2 9 3 6 3v1h-6v-2l-9 1-36-12-5-2z" fill="#2A2E46"/>
<path transform="translate(1070,734)" d="m0 0h16v1l-43 3-12 2-45 4-14 1v-1l29-4 41-4z" fill="#2C3048"/>
<path transform="translate(1635,804)" d="m0 0 16 4 17 5 20 6 9 1 13 4v1l-7 1-27-8-20-5-20-7z" fill="#2C3048"/>
<path transform="translate(1351,262)" d="m0 0h32l-1 4-16 1h-14z" fill="#2B2F47"/>
<path transform="translate(1146,506)" d="m0 0 2 1h19l9 1 1 2h-30v4h31v1h-32z" fill="#41445A"/>
<path transform="translate(1701,927)" d="m0 0 7 2 9 3 10 4 1 2-9-1-4 1-13-6-3-2h2z" fill="#141520"/>
<path transform="translate(1037,507)" d="m0 0 8 1 1 2h-5l-1 3h-15l-4-1v-4z" fill="#2A2E46"/>
<path transform="translate(360,390)" d="m0 0 1 4h2l1 10h-15l1-2h2l-2-4 7-1z" fill="#040406"/>
<path transform="translate(1637,803)" d="m0 0 9 2 41 12 8 3-3 1-22-6-15-5-18-5z" fill="#0E0F17"/>
<path transform="translate(1590,790)" d="m0 0 8 1 18 5v3l-9-1-21-6z" fill="#1C1E2E"/>
<path transform="translate(776,791)" d="m0 0 2 1-4 4-23 12-6 2-1-2z" fill="#2C3048"/>
<path transform="translate(836,511)" d="m0 0h15v1l33 1v1h-50l2-1z" fill="#2C3048"/>
<path transform="translate(1549,864)" d="m0 0 9 1 9 3 6 3v1h-6v-2l-9 1-3-2 2-1-8-3z" fill="#656879"/>
<path transform="translate(1876,1009)" d="m0 0 4 5 4 7v2l-5 2-1-7-3-5z" fill="#292D43"/>
<path transform="translate(705,831)" d="m0 0 2 1-3 1v2l-11 7h-2v2l-4-1 5-4z" fill="#2B2E46"/>
<path transform="translate(824,767)" d="m0 0m-3 1h3v2l-14 7h-5l4-3z" fill="#2C3048"/>
<path transform="translate(1710,930)" d="m0 0 15 5 3 3-9-1-5-1 2-2-6-1z" fill="#5C5F71"/>
<path transform="translate(1310,798)" d="m0 0 13 2 7 2-1 2-11-2-8-2z" fill="#2C3048"/>
<path transform="translate(1695,820)" d="m0 0 12 3 3 2-7 1-9-3z" fill="#35394F"/>
<path transform="translate(1517,856)" d="m0 0 7 1 11 3v2l-8-1-10-4z" fill="#1F2132"/>
<path transform="translate(1541,863)" d="m0 0 8 1 9 3-1 2h-5v-2l-11-3z" fill="#0C0C13"/>
<path transform="translate(640,871)" d="m0 0m-1 1m-1 1m-1 1m-1 1m-2 1h2l-2 4-9 4-2-1z" fill="#2C3048"/>
<path transform="translate(682,857)" d="m0 0 3 3-9 4h-2l1-3z" fill="#292C43"/>
<path transform="translate(717,824)" d="m0 0 2 2-5 4-7 1 5-4z" fill="#2C3048"/>
</svg>
